HIERARCHY
ROOT root
{
	OFFSET 0.000000 0.000000 0.000000
	CHANNELS 6 Xposition Yposition Zposition Zrotation Yrotation Xrotation
	JOINT lhip
	{
		OFFSET 0.058581 -0.082280 -0.017664
		CHANNELS 3 Zrotation Yrotation Xrotation
		JOINT lknee
		{
			OFFSET 0.043451 -0.386469 0.008037
			CHANNELS 3 Zrotation Yrotation Xrotation
			JOINT lankle
			{
				OFFSET -0.014790 -0.426874 -0.037428
				CHANNELS 3 Zrotation Yrotation Xrotation
				JOINT ltoe
				{
					OFFSET 0.041054 -0.060286 0.122042
					CHANNELS 3 Zrotation Yrotation Xrotation
					End Site
					{
						OFFSET 0.000000 0.000000 0.000000
					}
				}
			}
		}
	}
	JOINT rhip
	{
		OFFSET -0.060310 -0.090513 -0.013543
		CHANNELS 3 Zrotation Yrotation Xrotation
		JOINT rknee
		{
			OFFSET -0.043257 -0.383688 -0.004843
			CHANNELS 3 Zrotation Yrotation Xrotation
			JOINT rankle
			{
				OFFSET 0.019056 -0.420046 -0.034562
				CHANNELS 3 Zrotation Yrotation Xrotation
				JOINT rtoe
				{
					OFFSET -0.034840 -0.062106 0.130323
					CHANNELS 3 Zrotation Yrotation Xrotation
					End Site
					{
						OFFSET 0.000000 0.000000 0.000000
					}
				}
			}
		}
	}
	JOINT lowerback
	{
		OFFSET 0.004439 0.124404 -0.038385
		CHANNELS 3 Zrotation Yrotation Xrotation
		JOINT upperback
		{
			OFFSET 0.004488 0.137956 0.026820
			CHANNELS 3 Zrotation Yrotation Xrotation
			JOINT chest
			{
				OFFSET -0.002265 0.056032 0.002855
				CHANNELS 3 Zrotation Yrotation Xrotation
				JOINT lowerneck
				{
					OFFSET -0.013390 0.211636 -0.033468
					CHANNELS 3 Zrotation Yrotation Xrotation
					JOINT upperneck
					{
						OFFSET 0.010113 0.088937 0.050410
						CHANNELS 3 Zrotation Yrotation Xrotation
						End Site
						{
							OFFSET 0.000000 0.000000 0.000000
						}
					}
				}
				JOINT lclavicle
				{
					OFFSET 0.071702 0.114000 -0.018898
					CHANNELS 3 Zrotation Yrotation Xrotation
					JOINT lshoulder
					{
						OFFSET 0.122921 0.045205 -0.019046
						CHANNELS 3 Zrotation Yrotation Xrotation
						JOINT lelbow
						{
							OFFSET 0.255332 -0.015649 -0.022946
							CHANNELS 3 Zrotation Yrotation Xrotation
							JOINT lwrist
							{
								OFFSET 0.265709 0.012698 -0.007375
								CHANNELS 3 Zrotation Yrotation Xrotation
								End Site
								{
									OFFSET 0.000000 0.000000 0.000000
								}
							}
						}
					}
				}
				JOINT rclavicle
				{
					OFFSET -0.082954 0.112472 -0.023707
					CHANNELS 3 Zrotation Yrotation Xrotation
					JOINT rshoulder
					{
						OFFSET -0.113228 0.046853 -0.008472
						CHANNELS 3 Zrotation Yrotation Xrotation
						JOINT relbow
						{
							OFFSET -0.260127 -0.014369 -0.031269
							CHANNELS 3 Zrotation Yrotation Xrotation
							JOINT rwrist
							{
								OFFSET -0.269108 0.006794 -0.006027
								CHANNELS 3 Zrotation Yrotation Xrotation
								End Site
								{
									OFFSET 0.000000 0.000000 0.000000
								}
							}
						}
					}
				}
			}
		}
	}
}
MOTION
Frames: 7
Frame Time: 0.033333
-1.580351 0.476156 0.956665 81.151339 -0.938223 94.929189 9.292474 -4.316661 -47.322026 -10.296528 10.079454 39.647357 -1.234850 9.024276 -15.501882 0.000000 -0.000000 0.000000 -1.995282 -4.021383 0.385469 -0.413188 6.454078 42.555872 7.631449 -2.241154 -17.999404 0.000000 -0.000000 0.000000 0.449958 10.568538 23.741890 0.717604 1.352985 -6.538691 0.421132 2.850760 0.355738 -1.408410 -0.345440 -15.063460 0.858047 -4.748809 -4.440087 -20.606741 11.668630 1.395715 -47.297818 12.645391 14.478082 -94.361853 -78.226305 117.079074 14.640775 -14.361672 -20.984705 17.385763 -3.666214 -0.793615 54.121361 -3.255714 15.087803 -52.748997 85.457559 -34.399936 -10.496736 14.886563 -10.784400 
-1.444652 0.482379 0.969362 81.436357 -0.158951 94.960382 7.084758 -5.049850 -44.656942 -7.551823 7.673881 29.769104 -0.560403 11.070204 -6.158480 0.000000 -0.000000 0.000000 -1.882445 -3.138902 -0.703292 -0.847030 8.504448 50.729702 8.637378 -2.661292 5.483956 0.000000 -0.000000 0.000000 1.639959 9.501362 22.123492 -0.227650 1.714677 -5.656756 1.491729 2.519877 -0.873512 -3.483403 -5.892315 -12.616841 3.588985 0.921733 -4.117627 -21.117693 10.604860 1.396769 -50.911996 16.753772 10.277963 -100.999102 -77.980524 124.323894 13.178249 -14.659895 -19.140712 16.017954 -1.419327 0.113551 55.240330 -7.290940 11.532879 -13.010921 84.909838 1.321641 -10.606237 15.608716 -9.838861 
-1.311785 0.488193 0.972259 82.784669 -0.142448 94.991538 4.674225 -8.006964 -40.594959 -8.795772 6.878446 32.423921 6.311035 10.809458 -4.388203 0.000000 -0.000000 0.000000 -1.707039 0.340359 -8.423324 1.652896 5.309851 67.662117 3.700029 -8.889395 -0.770543 0.000000 -0.000000 0.000000 0.593524 6.668163 19.915134 0.969488 2.170937 -5.408125 1.781480 1.888888 -0.188245 -3.208890 -6.599723 -11.026173 2.880747 3.640099 -5.463450 -22.087979 11.217820 1.246604 -53.521162 13.989439 10.836692 -108.379963 -80.351532 131.678457 13.696055 -12.855070 -19.455170 17.111409 -2.403000 0.581359 54.361882 -8.809483 12.162445 -15.475048 79.724499 -2.267362 -6.182510 13.873454 -7.284422 
-1.148067 0.497884 0.962729 85.905256 0.073219 93.284131 -2.503725 -7.835721 -30.559751 -8.230851 4.088820 39.872006 14.729490 17.890747 -22.668080 0.000000 -0.000000 0.000000 -3.262214 1.699376 -21.314797 -0.062833 -1.399230 83.089742 0.547996 -16.594933 -8.517676 0.000000 -0.000000 0.000000 0.989887 1.349313 21.107699 1.591493 2.371556 -8.490670 1.590461 0.717634 3.628366 -1.633818 -5.776763 -13.503746 1.042739 5.716063 -2.195506 -23.785865 9.660184 -0.621122 -53.375173 6.705139 13.894150 -118.799380 -82.571585 141.006061 17.438494 -11.496462 -19.439239 19.319976 -4.111403 -1.733853 52.332601 -11.591541 14.541591 -21.069785 70.966451 -10.507619 -6.599691 13.085594 -3.617765 
-1.051743 0.505028 0.958451 88.474385 0.158738 92.274481 -5.992782 -7.251415 -22.485728 -7.415654 0.959328 40.068790 15.649360 20.590983 -28.774165 0.000000 -0.000000 0.000000 -4.601981 1.029820 -30.582598 0.349752 -4.156775 86.144867 -0.072276 -19.362566 -11.419832 0.000000 -0.000000 0.000000 1.943913 -2.280378 22.930242 1.733489 1.884592 -9.617487 1.214488 -0.317212 4.320114 -1.682754 -4.596169 -14.813471 0.286416 6.646990 -1.131571 -23.880058 8.562182 -1.933443 -53.091457 1.795648 15.294108 -121.880542 -83.434552 142.522816 17.591168 -11.718991 -19.571442 20.004206 -5.336855 -2.718343 51.208773 -12.816486 15.021394 -22.308301 66.871726 -14.503029 -6.198708 12.169272 -1.982656 
-0.920735 0.516921 0.960953 89.907888 0.084739 91.027134 -9.472317 -3.772489 -10.321944 -7.229013 -4.760202 37.318440 12.729394 20.998881 -31.357546 0.000000 -0.000000 0.000000 -6.055370 -0.402797 -41.576301 0.385281 -5.793886 80.529503 2.549905 -17.851470 -15.040721 0.000000 -0.000000 0.000000 3.673901 -6.198458 24.915297 1.368088 1.672151 -10.740480 1.297597 -1.384000 4.734426 -3.539442 -2.925458 -14.849677 -0.766320 8.050064 -2.092863 -23.502993 7.032879 -2.872819 -54.092788 -2.319618 15.465170 -130.900644 -83.797936 152.438540 16.803350 -13.248885 -16.194895 19.835202 -6.255817 -2.630303 48.974937 -15.179755 13.433801 -23.640615 66.869847 -17.177398 -6.908238 12.306350 -1.883748 
-0.789233 0.528463 0.973079 88.890756 0.398150 90.591002 -8.938407 0.914921 -1.822464 -8.788563 -7.041834 37.924060 5.056475 15.352160 -25.545405 0.000000 -0.000000 0.000000 -6.545099 0.522068 -47.739206 0.531353 -8.061226 63.391200 6.511459 -10.221614 -15.331329 0.000000 -0.000000 0.000000 5.770200 -9.234543 25.417283 1.217445 2.106356 -9.824861 1.132601 -1.411482 3.618836 -5.448690 -0.062452 -13.347440 -2.172479 8.454553 -3.519905 -23.579325 6.299838 -3.601478 -54.931793 -3.032272 16.556167 -150.148600 -83.420823 171.524761 15.764198 -14.617083 -14.252608 18.930290 -6.874563 -1.027301 47.331246 -15.605710 11.163441 -22.327482 68.972754 -15.630492 -7.346047 12.358869 -4.486285 
